<svg xmlns="http://www.w3.org/2000/svg" viewBox="0 0 15.977 11.412"><g transform="translate(-16 -119.294)"><path d="M7.9,6.112l-2-1.712L.2,9.25a2.028,2.028,0,0,0,.856.285H14.751a1.09,1.09,0,0,0,.713-.285L9.9,4.4Zm0,0" transform="translate(16.085 121.171)"/><path d="M15.421.285A1.09,1.09,0,0,0,14.708,0H1.013A1.09,1.09,0,0,0,.3.285L7.861,6.847Zm0,0" transform="translate(16.128 119.294)"/><path d="M0,.7v9.415L5.564,5.408Zm0,0" transform="translate(16 119.592)"/><path d="M7.3,5.55l5.564,4.708V.7Zm0,0" transform="translate(19.114 119.592)"/></g></svg>