<svg xmlns="http://www.w3.org/2000/svg" viewBox="0 0 23.211 20.343"><defs><style>.a{fill:#fff;}</style></defs><g transform="translate(0 -0.007)"><g transform="translate(14.13 0.007)"><path class="a" d="M240.506,3.877a2.077,2.077,0,1,0-.743-2.844,2.077,2.077,0,0,0,.743,2.844Zm0,0" transform="translate(-239.478 -0.007)"/></g><path class="a" d="M18.556,61.13c-.112,0-.224.012-.336.018l-.684-3.381.224-.083a.973.973,0,1,0-.679-1.823l-2.449.915-.112-.891a1.8,1.8,0,0,0-.224-1.959,1.872,1.872,0,0,0-2.608-.283L6.644,57.726h0A1.333,1.333,0,0,0,6.2,59.012a.774.774,0,0,0,.053,1.546l-.319.749a4.568,4.568,0,0,0-1.28-.183A4.687,4.687,0,1,0,7,61.773l.519-1.21h.838l2.85,1.156L9.688,64.21a1.364,1.364,0,0,0,1.162,2.071,1.347,1.347,0,0,0,1.162-.655L13.4,63.354l.9.543a4.59,4.59,0,0,0-.4,1.888,4.655,4.655,0,1,0,4.655-4.655Zm-13.9,8.148a3.487,3.487,0,1,1,0-6.974,3.384,3.384,0,0,1,.814.106L4.5,64.67a1.135,1.135,0,1,0,1.127,1.705h2.46a3.493,3.493,0,0,1-3.434,2.9Zm3.434-4.071H5.629c-.018-.03-.035-.053-.053-.083l.968-2.26a3.5,3.5,0,0,1,1.546,2.342Zm5.918-2.844.36-.6a1.367,1.367,0,0,0-.655-1.977l-2.49-1.009,1.534-1.239.083.7a.973.973,0,0,0,.968.856,1,1,0,0,0,.342-.059l2.272-.85.643,3.2A4.648,4.648,0,0,0,14.9,62.912Zm3.711,2.242L15.925,63.52a3.441,3.441,0,0,1,1.381-.979Zm.838,4.673a3.49,3.49,0,0,1-3.487-3.487,3.525,3.525,0,0,1,.248-1.274l2.1,1.269v.006a1.139,1.139,0,1,0,1.522-1.068l-.484-2.407c.035,0,.071-.012.106-.012a3.487,3.487,0,1,1-.006,6.974Zm0,0" transform="translate(0 -50.09)"/></g></svg>