<svg xmlns="http://www.w3.org/2000/svg" width="64.502" height="64.533" viewBox="0 0 64.502 64.533"><path d="M55.835,0H8.7A8.7,8.7,0,0,0,0,8.7V55.835a8.7,8.7,0,0,0,8.7,8.7H31.951L32,41.47H26a1.432,1.432,0,0,1-1.421-1.4l-.032-7.435a1.415,1.415,0,0,1,1.421-1.421h5.983V24.026c0-8.335,5.083-12.881,12.518-12.881h6.093a1.425,1.425,0,0,1,1.421,1.421v6.267a1.425,1.425,0,0,1-1.421,1.421H46.821c-4.041,0-4.83,1.926-4.83,4.736v6.22h8.887a1.415,1.415,0,0,1,1.4,1.579L51.4,40.223a1.416,1.416,0,0,1-1.4,1.247H42.022l-.047,23.063H55.8a8.7,8.7,0,0,0,8.7-8.7V8.7A8.657,8.657,0,0,0,55.835,0Z" transform="translate(0)"/></svg>