<svg xmlns="http://www.w3.org/2000/svg" viewBox="0 0 16.709 13.362"><g transform="translate(0)"><path d="M16.282.413A1.36,1.36,0,0,0,15.3,0H1.387A1.3,1.3,0,0,0,.413.413,1.3,1.3,0,0,0,0,1.387V11.962a1.33,1.33,0,0,0,.413.987,1.36,1.36,0,0,0,.987.413H15.309a1.33,1.33,0,0,0,.987-.413,1.36,1.36,0,0,0,.413-.987V1.387a1.483,1.483,0,0,0-.427-.973Zm-.707,11.548a.273.273,0,0,1-.28.28H1.387a.273.273,0,0,1-.28-.28V1.387A.233.233,0,0,1,1.2,1.2a.294.294,0,0,1,.2-.08H15.309a.273.273,0,0,1,.28.28V11.962Zm0,0"/><path d="M18.367,19.947a1.6,1.6,0,0,0,1.187-.493,1.619,1.619,0,0,0,.48-1.187,1.641,1.641,0,0,0-.48-1.187,1.619,1.619,0,0,0-1.187-.48,1.641,1.641,0,0,0-1.187.48,1.619,1.619,0,0,0-.48,1.187,1.641,1.641,0,0,0,.48,1.187,1.6,1.6,0,0,0,1.187.493Zm0,0" transform="translate(-14.473 -14.386)"/><path d="M20.874,31.554l-1.4-1.387L16.7,32.941v1.667H28.942V30.714L25.315,27.1Zm0,0" transform="translate(-14.473 -23.486)"/></g></svg>