<svg xmlns="http://www.w3.org/2000/svg" viewBox="0 0 15.146 20.689"><defs><style>.a{fill:#fff;}</style></defs><path class="a" d="M15.043,10.45c-.4-1.074-1.612-4.3-1.612-4.3a1.368,1.368,0,0,0-1.764-.8l-1.148.432L8.7,6.1,6.8,4.287a.671.671,0,0,0-.548-.179L4.372.253a.343.343,0,0,0-.616.3L5.694,4.524a.677.677,0,0,0,.158.753l.4.379L8.759,10.8l-.611,1.933-.864-.59a1.361,1.361,0,0,1-.569-.885L6.047,7.395A1.441,1.441,0,0,0,5.9,6.979l-1.3-2.4L3.46.4A.547.547,0,0,0,2.934,0H.543A.542.542,0,0,0,0,.543v19.52a.542.542,0,0,0,.543.543H11.925a.543.543,0,0,0,.469-.822l-1.954-3.308a1.26,1.26,0,0,1-.105-.226L9.57,14.142a1.054,1.054,0,0,0,.474-.585l.021-.068,3.418,7.005a.343.343,0,0,0,.311.195.326.326,0,0,0,.153-.037.344.344,0,0,0,.158-.458l-1.717-3.518c.011,0,.026.005.042.005a1.21,1.21,0,0,0,.237-.026,1.028,1.028,0,0,0,.764-1.238l-.579-2.449L14.7,11.851a1.11,1.11,0,0,0,.348-1.4ZM7.685,7.031l.316.3a.669.669,0,0,0,.474.19A.94.94,0,0,0,8.6,7.511l2.265-.406.864,2.307-1.464-.3a1.031,1.031,0,0,0-1.19.7l-.011.037Zm2.686,5.509.384-1.222.632.132-.237.142a1.023,1.023,0,0,0-.469,1.117l.205.88Zm0,0"/><path class="a" d="M177.643,41.986a1.543,1.543,0,1,0-1.543-1.543,1.542,1.542,0,0,0,1.543,1.543Zm0,0" transform="translate(-166.825 -36.851)"/></svg>