<?xml version="1.0" encoding="utf-8"?>
<!-- Generator: Adobe Illustrator 22.1.0, SVG Export Plug-In . SVG Version: 6.00 Build 0)  -->
<svg version="1.1" id="Ebene_1" xmlns="http://www.w3.org/2000/svg" xmlns:xlink="http://www.w3.org/1999/xlink" x="0px" y="0px"
	 viewBox="0 0 21 21" style="enable-background:new 0 0 21 21;" xml:space="preserve">
<style type="text/css">
	.st0{fill:#FFFFFF;}
</style>
<g transform="translate(0.025)">
	<path class="st0" d="M16.9,5.4h-2c-0.6,0-1,0.5-1,1.1c0,0.6,0.4,1,1,1.1h2c0.8,0,1.6,0.6,1.6,1.5c0,0,0,0,0,0c0,0.1,0,0.3-0.1,0.4
		c0.5,0.6,0.8,1.4,0.9,2.2c0.1-0.1,0.1-0.1,0.1-0.1c0.7-0.7,1-1.6,1-2.6C20.5,7,18.9,5.4,16.9,5.4z"/>
	<g transform="translate(-0.025 1.747)">
		<path class="st0" d="M15,6.9h-2c-0.5,0-1,0.5-1,1c0,0.5,0.4,0.9,1,1h2c0.9,0,1.6,0.7,1.6,1.6c0,0.4-0.2,0.8-0.4,1.1
			c-0.3,0.3-0.7,0.4-1.1,0.4H1.6c-0.5,0-1,0.4-1,1c0,0.5,0.4,1,1,1c0,0,0,0,0.1,0H15c0.9,0,1.8-0.4,2.5-1c0.7-0.7,1-1.6,1-2.5
			C18.5,8.4,16.9,6.9,15,6.9z"/>
		<path class="st0" d="M1.5,10.8l13.8,0.1c0.1,0,0.1,0,0.1-0.1c0.1-0.1,0.2-0.3,0.2-0.5c0-0.4-0.3-0.7-0.7-0.7H13
			c-0.6,0-1.2-0.3-1.6-0.9H11l0.2-0.5l0.9-1.9c0.1-0.1,0.1-0.1,0.1-0.2c0-0.3,0-0.5-0.1-0.8C11.9,5.2,11.6,5,11.2,5H3.6
			C3.2,5,2.9,5.2,2.7,5.5L0.6,9.4c-0.2,0.3-0.2,0.7,0,1C0.8,10.7,1.2,10.8,1.5,10.8z"/>
	</g>
</g>
</svg>
