<svg xmlns="http://www.w3.org/2000/svg" viewBox="0 0 21.102 21.391"><defs><style>.a,.b{fill:#fff;}.b{stroke:#fff;stroke-linecap:round;stroke-linejoin:round;stroke-miterlimit:10;stroke-width:1.6px;}</style></defs><path class="a" d="M19.821,1.961a1.875,1.875,0,0,1-1.961,1.857A1.94,1.94,0,0,1,15.9,1.961a1.961,1.961,0,1,1,3.921,0Zm0,0" transform="translate(0.481 0)"/><path class="a" d="M13.983,2.345A1.929,1.929,0,0,1,16.047,4.1a15.649,15.649,0,0,1-.825,3.611S17.285,9.052,17.9,9.464c1.135.929.722,1.651-.722,1.032-2.373-1.032-3.508-1.548-3.715-2.167a5.9,5.9,0,0,1,0-1.961l-1.341.825L6.245,2.861a1.976,1.976,0,0,1-.825.413A1.308,1.308,0,0,1,4.8,3.067l.619-.825L4.8,1.313l.929.413L6.348.9a1.161,1.161,0,0,1,.413.516.966.966,0,0,1-.1.722L9.134,4.1a6.6,6.6,0,0,1,4.85-1.754Zm0,0" transform="translate(0.127 0.029)"/><path class="a" d="M7.718,5.6s4.747,3.3,5.366,3.818,2.167,1.857.516,3.715c-1.548,1.857-3.2,3.715-3.2,3.715l-.929-.413-1.238-.619s2.27-2.889,2.683-3.405.31-1.032-.31-1.445c-.516-.413-1.445-.929-2.27-1.445A2.676,2.676,0,0,1,7.718,5.6Zm0,0" transform="translate(0.201 0.178)"/><g transform="translate(0.8 10.834)"><path class="b" d="M.8,10.5l16.3,9.39s2.064.929,3.2-.619" transform="translate(-0.8 -10.5)"/></g></svg>