<svg xmlns="http://www.w3.org/2000/svg" viewBox="0 0 13.674 20.464"><defs><style>.a{fill:#fff;}</style></defs><g transform="translate(0.034)"><g transform="translate(-0.034)"><path class="a" d="M105.932,3.465A1.732,1.732,0,1,0,104.2,1.732a1.735,1.735,0,0,0,1.732,1.732Zm0,0" transform="translate(-98.449)"/><path class="a" d="M13.64,56.385a.9.9,0,0,0-.894-.894H9.723l-1.7-2.422.006-.039a1.758,1.758,0,0,0-1.512-1.975,1.752,1.752,0,0,0-1.363.408v-.634A.629.629,0,0,0,4.52,50.2H2.776a.629.629,0,0,0-.629.629v6.08a1.76,1.76,0,0,0,1.589,1.743l-.132.314L2.55,62.945.178,66.134A1.074,1.074,0,0,0,1.9,67.42l2.494-3.355a1.015,1.015,0,0,0,.177-.364l.717-2.709,1.964,1.8-.27,3.912a1.07,1.07,0,0,0,1,1.142h.077a1.077,1.077,0,0,0,1.07-1l.3-4.425a1.073,1.073,0,0,0-.348-.866L7.052,59.7l.618-4L8.525,56.9a.9.9,0,0,0,.728.381h3.128l.061,10.251a.359.359,0,0,0,.717,0L13.1,57.2a.9.9,0,0,0,.541-.817Zm0,0" transform="translate(0.034 -47.43)"/></g></g></svg>