<?xml version="1.0" encoding="utf-8"?>
<!-- Generator: Adobe Illustrator 22.1.0, SVG Export Plug-In . SVG Version: 6.00 Build 0)  -->
<svg version="1.1" id="Ebene_1" xmlns="http://www.w3.org/2000/svg" xmlns:xlink="http://www.w3.org/1999/xlink" x="0px" y="0px"
	 viewBox="0 0 16 16" style="enable-background:new 0 0 16 16;" xml:space="preserve">
<style type="text/css">
	.st0{clip-path:url(#SVGID_2_);}
</style>
<g transform="translate(0 -0.1)">
	<g transform="translate(0 0.1)">
		<g>
			<defs>
				<rect id="SVGID_1_" x="2.1" y="1" width="11.9" height="14"/>
			</defs>
			<clipPath id="SVGID_2_">
				<use xlink:href="#SVGID_1_"  style="overflow:visible;"/>
			</clipPath>
			<g transform="translate(0 0)" class="st0">
				<path d="M11.4,11.8c2.7-1.9,3.3-5.6,1.5-8.2C11,0.9,7.3,0.2,4.6,2.1s-3.3,5.6-1.5,8.2c0.4,0.6,0.9,1.1,1.5,1.5l-1.4,1.5
					c-0.1,0.1-0.2,0.3-0.2,0.5v0.5c0,0.4,0.4,0.8,0.8,0.8c0,0,0,0,0,0h8.3c0.4,0,0.8-0.4,0.8-0.8c0,0,0,0,0,0v-0.5
					c0-0.2-0.1-0.3-0.2-0.5L11.4,11.8z M8,4.2c1.5,0,2.8,1.2,2.8,2.8S9.5,9.7,8,9.7S5.2,8.4,5.2,6.9S6.5,4.2,8,4.2
					C8,4.2,8,4.2,8,4.2z M4.8,13.6l1.1-1.1c0.7,0.2,1.4,0.4,2.1,0.4c0.7,0,1.4-0.1,2.1-0.4l1.1,1.1L4.8,13.6z"/>
			</g>
		</g>
	</g>
	<path d="M8,8.7C8.9,8.7,9.7,8,9.7,7c0-0.6-0.3-1.1-0.8-1.5C8.9,5.8,8.5,6,8,6C7.5,6,7.1,5.8,7.1,5.6C6.3,6.1,6,7.1,6.5,7.9
		C6.9,8.4,7.4,8.7,8,8.7z"/>
</g>
</svg>
