<?xml version="1.0" encoding="utf-8"?>
<!-- Generator: Adobe Illustrator 16.0.0, SVG Export Plug-In . SVG Version: 6.00 Build 0)  -->
<!DOCTYPE svg PUBLIC "-//W3C//DTD SVG 1.1//EN" "http://www.w3.org/Graphics/SVG/1.1/DTD/svg11.dtd">
<svg version="1.1" xmlns="http://www.w3.org/2000/svg" xmlns:xlink="http://www.w3.org/1999/xlink" x="0px" y="0px"
	 width="566.929px" height="425.197px" viewBox="0 0 566.929 425.197" enable-background="new 0 0 566.929 425.197"
	 xml:space="preserve">
<g id="Ebene_2">
	<rect fill="#0999A8" width="566.929" height="425.197"/>
</g>
<g id="Ebene_1">
	<g>
		<g>
			<linearGradient id="SVGID_1_" gradientUnits="userSpaceOnUse" x1="520.958" y1="425.1968" x2="520.958" y2="397.561">
				<stop  offset="0" style="stop-color:#26B8CF"/>
				<stop  offset="1" style="stop-color:#0499A9"/>
			</linearGradient>
			<path fill="url(#SVGID_1_)" d="M566.929,425.197v-27.636c-29.646,8.9-61.329,18.427-91.941,27.636H566.929z"/>
			<linearGradient id="SVGID_2_" gradientUnits="userSpaceOnUse" x1="471.7051" y1="425.1968" x2="471.7051" y2="308.1187">
				<stop  offset="0" style="stop-color:#26B8CF"/>
				<stop  offset="1" style="stop-color:#0499A9"/>
			</linearGradient>
			<path fill="url(#SVGID_2_)" d="M402.866,425.197c47.512-20.909,107.216-47.185,164.063-72.202v-44.876
				c-62.104,38.136-137.488,84.497-190.446,117.078H402.866z"/>
			<linearGradient id="SVGID_3_" gradientUnits="userSpaceOnUse" x1="454.0605" y1="425.1968" x2="454.0605" y2="202.4897">
				<stop  offset="0" style="stop-color:#26B8CF"/>
				<stop  offset="1" style="stop-color:#0499A9"/>
			</linearGradient>
			<path fill="url(#SVGID_3_)" d="M350.27,425.197c50.877-39.467,139.09-107.898,216.659-168.072V202.49
				c-69.702,68.661-173.168,170.8-225.737,222.707H350.27z"/>
			<linearGradient id="SVGID_4_" gradientUnits="userSpaceOnUse" x1="444.3418" y1="425.1968" x2="444.3418" y2="64.3433">
				<stop  offset="0" style="stop-color:#26B8CF"/>
				<stop  offset="1" style="stop-color:#0499A9"/>
			</linearGradient>
			<path fill="url(#SVGID_4_)" d="M325.884,425.197c46.282-55.063,158.188-188.199,241.045-286.775V64.343
				c-49.985,73.22-195.054,286.987-245.173,360.854H325.884z"/>
			<linearGradient id="SVGID_5_" gradientUnits="userSpaceOnUse" x1="429.3408" y1="425.1968" x2="429.3408" y2="4.882813e-004">
				<stop  offset="0" style="stop-color:#26B8CF"/>
				<stop  offset="1" style="stop-color:#0499A9"/>
			</linearGradient>
			<path fill="url(#SVGID_5_)" d="M310.687,425.197C348.88,357.906,479.578,127.635,550.32,2.998c-0.854-1.007-1.715-2-2.574-2.998
				h-46.662C455.26,95.687,340.409,353.193,308.361,425.197H310.687z"/>
			<linearGradient id="SVGID_6_" gradientUnits="userSpaceOnUse" x1="377.7959" y1="425.1968" x2="377.7959" y2="4.882813e-004">
				<stop  offset="0" style="stop-color:#26B8CF"/>
				<stop  offset="1" style="stop-color:#0499A9"/>
			</linearGradient>
			<path fill="url(#SVGID_6_)" d="M299.912,425.197C322.054,365.325,410.07,127.308,457.148,0h-41.124
				c-39.541,131.806-101.872,365.908-117.581,425.197H299.912z"/>
			<linearGradient id="SVGID_7_" gradientUnits="userSpaceOnUse" x1="335.374" y1="425.1968" x2="335.374" y2="4.882813e-004">
				<stop  offset="0" style="stop-color:#26B8CF"/>
				<stop  offset="1" style="stop-color:#0499A9"/>
			</linearGradient>
			<path fill="url(#SVGID_7_)" d="M291.529,425.197C302.732,371.5,353.384,128.73,380.241,0h-36.134
				c-21.636,146.347-47.733,373.534-53.601,425.197H291.529z"/>
			<linearGradient id="SVGID_8_" gradientUnits="userSpaceOnUse" x1="295.1191" y1="425.1968" x2="295.1191" y2="4.882813e-004">
				<stop  offset="0" style="stop-color:#26B8CF"/>
				<stop  offset="1" style="stop-color:#0499A9"/>
			</linearGradient>
			<path fill="url(#SVGID_8_)" d="M283.978,425.197C287.292,375.17,303.56,129.584,312.144,0h-32.351
				c-0.019,49.673-0.065,99.361-0.07,149.003c0-49.668,0-99.336,0-149.003h-1.313c-1.637,151.425,3.582,377.489,4.745,425.197
				H283.978z"/>
		</g>
		<g>
			
				<linearGradient id="SVGID_9_" gradientUnits="userSpaceOnUse" x1="62.1919" y1="425.1978" x2="62.1919" y2="397.562" gradientTransform="matrix(-1 0 0 1 108.1621 0)">
				<stop  offset="0" style="stop-color:#26B8CF"/>
				<stop  offset="1" style="stop-color:#0499A9"/>
			</linearGradient>
			<path fill="url(#SVGID_9_)" d="M0,425.197v-27.636c29.646,8.9,61.329,18.427,91.941,27.636H0z"/>
			
				<linearGradient id="SVGID_10_" gradientUnits="userSpaceOnUse" x1="12.939" y1="425.1978" x2="12.939" y2="308.1196" gradientTransform="matrix(-1 0 0 1 108.1621 0)">
				<stop  offset="0" style="stop-color:#26B8CF"/>
				<stop  offset="1" style="stop-color:#0499A9"/>
			</linearGradient>
			<path fill="url(#SVGID_10_)" d="M164.063,425.197C116.551,404.288,56.847,378.012,0,352.995v-44.876
				c62.104,38.136,137.488,84.497,190.446,117.078H164.063z"/>
			
				<linearGradient id="SVGID_11_" gradientUnits="userSpaceOnUse" x1="-4.7065" y1="425.1978" x2="-4.7066" y2="202.4907" gradientTransform="matrix(-1 0 0 1 108.1621 0)">
				<stop  offset="0" style="stop-color:#26B8CF"/>
				<stop  offset="1" style="stop-color:#0499A9"/>
			</linearGradient>
			<path fill="url(#SVGID_11_)" d="M216.659,425.197C165.782,385.73,77.569,317.298,0,257.125V202.49
				c69.702,68.661,173.167,170.8,225.738,222.707H216.659z"/>
			
				<linearGradient id="SVGID_12_" gradientUnits="userSpaceOnUse" x1="-14.4243" y1="425.1978" x2="-14.4243" y2="64.3442" gradientTransform="matrix(-1 0 0 1 108.1621 0)">
				<stop  offset="0" style="stop-color:#26B8CF"/>
				<stop  offset="1" style="stop-color:#0499A9"/>
			</linearGradient>
			<path fill="url(#SVGID_12_)" d="M241.045,425.197C194.762,370.133,82.857,236.998,0,138.421V64.343
				c49.986,73.22,195.054,286.987,245.172,360.854H241.045z"/>
			
				<linearGradient id="SVGID_13_" gradientUnits="userSpaceOnUse" x1="-29.4263" y1="425.1978" x2="-29.4263" y2="0" gradientTransform="matrix(-1 0 0 1 108.1621 0)">
				<stop  offset="0" style="stop-color:#26B8CF"/>
				<stop  offset="1" style="stop-color:#0499A9"/>
			</linearGradient>
			<path fill="url(#SVGID_13_)" d="M256.242,425.197C218.049,357.906,87.351,127.635,16.609,2.998c0.854-1.007,1.714-2,2.574-2.998
				h46.662c45.824,95.687,160.675,353.193,192.723,425.197H256.242z"/>
			
				<linearGradient id="SVGID_14_" gradientUnits="userSpaceOnUse" x1="-80.9712" y1="425.1978" x2="-80.9712" y2="0" gradientTransform="matrix(-1 0 0 1 108.1621 0)">
				<stop  offset="0" style="stop-color:#26B8CF"/>
				<stop  offset="1" style="stop-color:#0499A9"/>
			</linearGradient>
			<path fill="url(#SVGID_14_)" d="M267.016,425.197C244.875,365.325,156.858,127.308,109.781,0h41.124
				c39.541,131.806,101.873,365.908,117.581,425.197H267.016z"/>
			
				<linearGradient id="SVGID_15_" gradientUnits="userSpaceOnUse" x1="-123.3921" y1="425.1978" x2="-123.3921" y2="0" gradientTransform="matrix(-1 0 0 1 108.1621 0)">
				<stop  offset="0" style="stop-color:#26B8CF"/>
				<stop  offset="1" style="stop-color:#0499A9"/>
			</linearGradient>
			<path fill="url(#SVGID_15_)" d="M275.399,425.197C264.196,371.5,213.545,128.73,186.687,0h36.134
				c21.636,146.347,47.733,373.534,53.601,425.197H275.399z"/>
		</g>
	</g>
</g>
</svg>
