<?xml version="1.0" encoding="utf-8"?>
<!-- Generator: Adobe Illustrator 23.0.2, SVG Export Plug-In . SVG Version: 6.00 Build 0)  -->
<svg version="1.1" id="Ebene_1" xmlns="http://www.w3.org/2000/svg" xmlns:xlink="http://www.w3.org/1999/xlink" x="0px" y="0px"
	 viewBox="0 0 654.2 36" style="enable-background:new 0 0 654.2 36;" xml:space="preserve">
<path id="icn-info" d="M636.2,36c-10,0-18-8.1-18-18s8-18,18-18s18,8,18,18S646.1,36,636.2,36 M641.2,26.7L641.2,26.7 M641.2,26.7
	L641.2,26.7L641.2,26.7 M641.2,26.7L641.2,26.7L641.2,26.7 M641.2,26.7L641.2,26.7L641.2,26.7 M641.2,26.7L641.2,26.7L641.2,26.7
	 M641.2,26.7L641.2,26.7L641.2,26.7 M641.2,26.7L641.2,26.7L641.2,26.7 M641.2,26.7L641.2,26.7L641.2,26.7 M641.2,26.7L641.2,26.7
	 M641.2,26.7L641.2,26.7L641.2,26.7 M641.2,26.7L641.2,26.7L641.2,26.7 M641.2,26.7L641.2,26.7L641.2,26.7 M641.2,26.7L641.2,26.7
	L641.2,26.7 M641.2,26.7L641.2,26.7 M641.2,26.7L641.2,26.7L641.2,26.7L641.2,26.7 M641.2,26.7L641.2,26.7 M641.8,8.8L641.8,8.8
	c0-0.8-0.3-1.5-0.9-2c-1.2-1.1-3-1.1-4.3,0c-1.1,1-1.2,2.6-0.2,3.7c0.1,0.1,0.2,0.2,0.2,0.2c1.2,1.1,3,1.1,4.3,0
	C641.5,10.2,641.8,9.5,641.8,8.8 M641.5,27.3L641.5,27.3c-0.3,0.1-0.6,0.2-0.8,0.3c-0.3,0.1-0.7,0.2-1,0.2c-0.5,0-1-0.1-1.4-0.3
	c-0.3-0.3-0.5-0.8-0.4-1.2c0-0.3,0.1-0.7,0.1-1c0.1-0.5,0.2-0.9,0.3-1.2l1.3-4.4c0.1-0.4,0.2-0.9,0.3-1.3c0-0.5,0.1-0.8,0.1-1
	c0-0.9-0.3-1.7-1-2.3c-0.8-0.6-1.8-0.9-2.8-0.9c-0.7,0-1.5,0.1-2.1,0.4c-0.8,0.2-1.5,0.5-2.4,0.9l-0.5,1.1c0.2-0.1,0.5-0.2,0.9-0.3
	c0.3-0.1,0.7-0.2,1-0.2c0.5-0.1,1,0.1,1.3,0.3c0.3,0.3,0.4,0.8,0.4,1.2c0,0.3,0,0.7-0.1,1c-0.1,0.4-0.2,0.8-0.3,1.2l-1.3,4.4
	c-0.1,0.4-0.2,0.8-0.2,1.3c-0.1,0.4-0.1,0.7-0.1,1.1c0,0.9,0.4,1.7,1,2.3c0.8,0.6,1.8,1,2.9,0.9c0.7,0,1.4-0.1,2.1-0.3
	c0.6-0.2,1.4-0.5,2.4-0.9L641.5,27.3"/>
<g id="icn-cam_1_">
	<path id="Pfad_3" d="M370.2,6.7h-25.9c-0.7,0-1.2,0.6-1.2,1.2v20.2c0,0.7,0.6,1.2,1.2,1.2h25.9c0.7,0,1.2-0.6,1.2-1.2v-5.8l4.5,4.5
		c0.2,0.2,0.5,0.4,0.9,0.4c0.2,0,0.3,0,0.5-0.1c0.5-0.2,0.8-0.6,0.8-1.1V10.1c0-0.5-0.3-0.9-0.8-1.1c-0.5-0.2-1-0.1-1.3,0.3
		l-4.5,4.5V7.9C371.5,7.2,370.9,6.7,370.2,6.7z M369,16.7v10.2h-23.5V9.1H369V16.7L369,16.7z M375.6,13.1V23l-4.1-4.1v-1.6
		L375.6,13.1z"/>
</g>
<g id="icn-clock">
	<g id="Gruppe_1">
		<path id="Pfad_1" d="M429.5,3.8c-7.9,0-14.2,6.4-14.2,14.3c0,7.9,6.4,14.2,14.3,14.2c7.9,0,14.2-6.4,14.2-14.2
			C443.7,10.1,437.4,3.8,429.5,3.8z M429.5,29.2c-6.2,0-11.2-5-11.2-11.2s5-11.2,11.2-11.2c6.2,0,11.2,5,11.2,11.2
			C440.7,24.2,435.7,29.2,429.5,29.2z"/>
		<path id="Pfad_2" d="M436.9,17.6h-6.4V9.9c0-0.6-0.5-1.2-1.2-1.2s-1.2,0.5-1.2,1.2v8.9c0,0.6,0.5,1.2,1.2,1.2l0,0h7.6
			c0.6,0,1.2-0.5,1.2-1.2S437.6,17.6,436.9,17.6L436.9,17.6L436.9,17.6z"/>
	</g>
</g>
<g id="icn-ticket">
	<g id="Gruppe_3">
		<g id="Gruppe_2">
			<path id="Pfad_4" d="M511.3,9.5l-0.7,0.7c-1.2,1.2-3.1,1.2-4.3,0s-1.2-3.1,0-4.3l0.7-0.7l-4.2-4.2l-21.4,21.4l4.2,4.2l0.7-0.7
				c1.2-1.2,3.1-1.2,4.3,0.1c1.2,1.2,1.2,3.1,0,4.3l-0.7,0.7l4.2,4.2l21.4-21.4L511.3,9.5z M492.6,30.8c1.5-2.3,0.9-5.5-1.4-7
				c-1.7-1.1-3.9-1.1-5.6,0l-1.5-1.5l18.5-18.5l1.5,1.5c-1.5,2.3-0.9,5.5,1.4,7c1.7,1.1,3.9,1.1,5.6,0l1.5,1.5l-18.5,18.5
				L492.6,30.8z"/>
		</g>
	</g>
	<g id="Gruppe_5" transform="translate(18.527 12.79)">
		<g id="Gruppe_4" transform="translate(0 0)">
			
				<rect id="Rechteck_12" x="481.7" y="1.3" transform="matrix(0.7071 -0.7071 0.7071 0.7071 139.7367 342.0368)" width="2" height="2"/>
		</g>
	</g>
	<g id="Gruppe_7" transform="translate(15.685 9.948)">
		<g id="Gruppe_6" transform="translate(0 0)">
			
				<rect id="Rechteck_13" x="481.7" y="1.3" transform="matrix(0.7071 -0.7071 0.7071 0.7071 139.7367 342.0368)" width="2" height="2"/>
		</g>
	</g>
	<g id="Gruppe_9" transform="translate(21.369 15.632)">
		<g id="Gruppe_8" transform="translate(0 0)">
			
				<rect id="Rechteck_14" x="481.7" y="1.3" transform="matrix(0.7071 -0.7071 0.7071 0.7071 139.7367 342.0368)" width="2" height="2"/>
		</g>
	</g>
</g>
<g id="icn-calendar">
	<g id="Gruppe_11" transform="translate(0)">
		<g id="Gruppe_10" transform="translate(0)">
			<path id="Pfad_5" d="M579.7,5.7c-0.1,0-0.1,0-0.2,0h-2.4V3.7c-0.1-0.8-0.8-1.4-1.6-1.3c0,0,0,0,0,0h-2.2
				c-0.7-0.1-1.4,0.4-1.4,1.2c0,0.1,0,0.1,0,0.2v2.1h-9.1V3.7c0-0.7-0.6-1.3-1.3-1.3c-0.1,0-0.1,0-0.2,0h-2.2
				c-0.8-0.1-1.5,0.5-1.6,1.3c0,0,0,0,0,0v2.1h-2.4c-1.5,0-2.8,1.2-2.9,2.7c0,0,0,0,0,0c0,0.1,0,0.1,0,0.2v21.8
				c-0.1,1.7,1.2,3.1,2.9,3.2h24.5c1.7-0.1,2.9-1.5,2.9-3.2V8.6C582.5,7.1,581.3,5.8,579.7,5.7z M573.3,3.8h2.3V8h-2.3V3.8z
				 M559.1,3.8h2.2V8h-2.2V3.8z M580.9,30.5c0.1,0.8-0.5,1.6-1.4,1.7h-24.5c-0.8-0.1-1.4-0.9-1.4-1.7v-16h27.2V30.5z M580.9,8.6v4.3
				h-27.2V8.6c-0.1-0.7,0.5-1.3,1.2-1.4c0.1,0,0.1,0,0.2,0h2.4v0.8c0.1,0.8,0.8,1.5,1.6,1.4h2.2c0.8,0,1.4-0.6,1.4-1.4
				c0,0,0-0.1,0-0.1V7.2h9.1v0.8c0,0.8,0.6,1.4,1.4,1.4h2.3c0.8,0,1.6-0.6,1.6-1.4V7.2h2.4c0.7,0,1.3,0.5,1.4,1.2
				C580.9,8.5,580.9,8.6,580.9,8.6z"/>
			<path id="Pfad_6" d="M563.1,24.7l-0.7,3.8c-0.1,0.4,0.2,0.8,0.6,0.9c0.2,0,0.3,0,0.5-0.1l3.4-1.8l3.4,1.8l0.3,0.1
				c0.2,0,0.3-0.1,0.5-0.2c0.2-0.2,0.3-0.4,0.3-0.7l-0.7-3.8l2.8-2.6c0.2-0.2,0.3-0.5,0.2-0.8c-0.1-0.3-0.3-0.4-0.6-0.5l-3.8-0.6
				l-1.7-3.4c-0.2-0.4-0.6-0.5-1-0.4c-0.2,0.1-0.3,0.2-0.4,0.4l-1.7,3.4l-3.8,0.6c-0.3,0-0.5,0.2-0.6,0.5c-0.1,0.3,0,0.6,0.2,0.8
				L563.1,24.7z M565.2,21.7c0.2,0,0.4-0.2,0.5-0.4l1.2-2.4l1.2,2.4c0.1,0.2,0.3,0.4,0.5,0.4l2.7,0.4l-1.9,1.9
				c-0.2,0.2-0.3,0.4-0.2,0.7l0.5,2.7l-2.4-1.3l-0.3-0.1l-0.3,0.1l-2.4,1.3l0.5-2.7c0-0.2,0-0.5-0.2-0.7l-1.9-1.8L565.2,21.7z"/>
		</g>
	</g>
</g>
<g id="icn-marker" transform="translate(-76)">
	<g id="Gruppe_61" transform="translate(76)">
		<g id="Gruppe_60" transform="translate(0)">
			<path id="Pfad_460" d="M291.7,2.9c-5.9,0-10.6,4.7-10.6,10.6c0,2,0.5,3.9,1.6,5.6l8.4,13.6c0.2,0.3,0.4,0.4,0.8,0.4h0
				c0.3,0,0.6-0.2,0.8-0.4l8.2-13.7c3-5,1.4-11.5-3.7-14.5C295.5,3.4,293.6,2.9,291.7,2.9z M299.3,18l-7.5,12.4l-7.7-12.3
				C281.6,14,282.9,8.6,287,6s9.6-1.3,12.2,2.9C300.9,11.7,301,15.2,299.3,18L299.3,18z"/>
		</g>
	</g>
	<g id="Gruppe_63" transform="translate(81.3 5.3)">
		<g id="Gruppe_62">
			<path id="Pfad_461" d="M286.4,2.9c-2.9,0-5.3,2.4-5.3,5.3s2.4,5.3,5.3,5.3c2.9,0,5.3-2.4,5.3-5.3C291.7,5.3,289.3,2.9,286.4,2.9z
				 M286.4,11.8c-2,0-3.5-1.6-3.6-3.5c0-2,1.6-3.5,3.5-3.6s3.5,1.6,3.6,3.5c0,0,0,0,0,0C289.9,10.2,288.3,11.8,286.4,11.8z"/>
		</g>
	</g>
</g>
<g id="icn-beetle" transform="translate(0 155.001)">
	<path id="Pfad_10" d="M174.2-133.5h-1.2c-0.2-1.6-0.8-3.2-1.6-4.6c-3.9-5-8.7-7.7-14.8-7.7c-4,0-6.5,0.4-7.9,1.2
		c-0.2,0.1-0.7,0.4-2.2,3.3c-2.1,0-7.7,0.4-10.4,3.4c-1.1,1.2-1.8,2.7-2.1,4.4h-0.6c-0.5,0-0.9,0.4-0.9,0.9c0,0.5,0.4,0.8,0.9,0.9
		h0.4c0,0,0,0.1,0,0.1c0,0.5,0.4,0.8,0.9,0.8h1.1c1,2.3,3.6,3.3,5.9,2.3c1-0.5,1.9-1.3,2.3-2.3h17.1c1,2.3,3.6,3.3,5.9,2.3
		c1-0.5,1.9-1.3,2.3-2.3h3c0.5,0,0.9-0.4,0.9-0.9h0.9c0.5,0,0.9-0.4,0.9-0.9C175.1-133.1,174.7-133.5,174.2-133.5L174.2-133.5z
		 M140.1-130c-1.5,0-2.7-1.2-2.7-2.7c0-1.5,1.2-2.7,2.7-2.7c1.5,0,2.7,1.2,2.7,2.7C142.8-131.2,141.6-130,140.1-130z M155.9-140.4
		c0,0.2-0.2,0.4-0.4,0.4c0,0,0,0,0,0h-7c-0.2,0-0.3-0.1-0.4-0.2c-0.1-0.1-0.1-0.3,0-0.4c0.3-0.7,0.7-1.4,1.2-2.1
		c0.9-0.6,2.8-0.9,5.7-0.9c0.2,0,0.3,0,0.5,0c0.2,0,0.4,0.2,0.4,0.4L155.9-140.4L155.9-140.4z M156.8-140.4v-2.6
		c0-0.1,0.1-0.2,0.2-0.3c0.1-0.1,0.2-0.1,0.3-0.1c3.2,0.4,5.6,1.4,6.5,2.8c0.1,0.2,0.1,0.5-0.1,0.6c-0.1,0.1-0.2,0.1-0.3,0.1h-6.2
		C157-139.9,156.8-140.1,156.8-140.4C156.8-140.4,156.8-140.4,156.8-140.4L156.8-140.4z M165.3-130c-1.5,0-2.7-1.2-2.7-2.7
		c0-1.5,1.2-2.7,2.7-2.7c1.5,0,2.7,1.2,2.7,2.7c0,0,0,0,0,0C168-131.2,166.8-130,165.3-130L165.3-130z"/>
</g>
<g id="icn-bus" transform="translate(2.709 231.154)">
	<g id="Gruppe_16" transform="translate(0 0)">
		<path id="Pfad_11" d="M210.3-209.8c-1.8,0-3.3,1.5-3.3,3.3c0,1.8,1.5,3.3,3.3,3.3c1.8,0,3.3-1.5,3.3-3.3
			C213.6-208.4,212.1-209.8,210.3-209.8C210.3-209.8,210.3-209.8,210.3-209.8z M210.3-205.1c-0.8,0-1.4-0.6-1.4-1.4s0.6-1.4,1.4-1.4
			c0.8,0,1.4,0.6,1.4,1.4C211.7-205.8,211.1-205.1,210.3-205.1C210.3-205.1,210.3-205.1,210.3-205.1z"/>
		<path id="Pfad_12" d="M229.4-209.8c-1.8,0-3.3,1.5-3.3,3.3c0,1.8,1.5,3.3,3.3,3.3c1.8,0,3.3-1.5,3.3-3.3
			C232.7-208.4,231.2-209.8,229.4-209.8C229.4-209.8,229.4-209.8,229.4-209.8z M229.4-205.1c-0.8,0-1.4-0.6-1.4-1.4s0.6-1.4,1.4-1.4
			s1.4,0.6,1.4,1.4S230.2-205.1,229.4-205.1L229.4-205.1z"/>
		<path id="Pfad_13" d="M235.7-223h-29.2c-1.1,0-2.1,0.8-2.3,1.9l-1.2,4.3c-0.2,1.3-0.4,2.6-0.4,3.9v4.5c0,1.1,0.9,1.9,1.9,1.9h2
			c0-2.1,1.7-3.8,3.8-3.8c2.1,0,3.8,1.7,3.8,3.8h11.4c0-2.1,1.7-3.8,3.8-3.8c2.1,0,3.8,1.7,3.8,3.8h2.4c1.1,0,1.9-0.9,1.9-1.9v-12.6
			C237.6-222.1,236.7-223,235.7-223z M210.6-214.8h-4.5l0.7-1.7c0.2-0.3,0-0.6-0.2-0.8s-0.6,0-0.8,0.2c0,0,0,0.1,0,0.1l-0.9,2.1
			c-0.6-0.2-1-0.8-0.8-1.4l1-4.2c0.2-0.8,0.9-1.4,1.7-1.4h3.9C210.6-221.8,210.6-214.8,210.6-214.8z M219.3-214.8h-7.5v-7h7.5
			V-214.8z M228-214.8h-7.5v-7h7.5L228-214.8z M236.4-216.3c0,0.8-0.7,1.5-1.5,1.5h-5.8v-7h5.8c0.8,0,1.5,0.7,1.5,1.5V-216.3z"/>
	</g>
</g>
<g id="icn-bicycle" transform="translate(7.973)">
	<g id="Gruppe_14" transform="translate(0 0)">
		<path id="Pfad_8" d="M-8,22.2c0-3.4,2.8-6.1,6.1-6.1c0.4,0,0.8,0,1.2,0.1l1-2.6v-3.4c0-1.3,1.1-2.4,2.4-2.4c0,0,0,0,0,0h1.7
			c0.5,0,0.9,0.4,0.9,0.9c0,0.5-0.4,0.9-0.9,0.9c0,0,0,0-0.1,0H2.7c-0.3,0-0.6,0.3-0.6,0.6v2.7h9.3v-0.8h-1.3
			c-0.5,0-0.9-0.4-0.9-0.9c0-0.5,0.4-0.9,0.9-0.9c0,0,0,0,0.1,0h4.3c0.5,0,0.9,0.4,0.9,0.9c0,0.5-0.4,0.9-0.9,0.9c0,0,0,0-0.1,0
			h-1.3v1.4l2.3,3.3c3-1.5,6.6-0.3,8.1,2.7s0.3,6.6-2.7,8.1s-6.6,0.3-8.1-2.7c-0.3-0.5-0.4-1-0.5-1.6H10c-0.2,0-0.5-0.1-0.6-0.3
			l-7.8-7.7L1,16.8C4,18.4,5.1,22.1,3.5,25c-1.1,2-3.1,3.2-5.4,3.2C-5.2,28.2-8,25.6-8,22.2C-8,22.2-8,22.2-8,22.2z M18.2,26.4
			c2.4,0,4.3-1.9,4.3-4.3s-1.9-4.3-4.3-4.3c-0.6,0-1.2,0.1-1.8,0.4l2.5,3.7c0.3,0.4,0.2,1-0.2,1.2c-0.1,0.1-0.3,0.2-0.5,0.2H14
			C14.6,25.2,16.3,26.4,18.2,26.4L18.2,26.4z M16.5,21.5L15,19.3c-0.6,0.6-0.9,1.4-1.1,2.2H16.5z M10.3,21.5h1.8
			c0.2-1.4,0.8-2.7,1.8-3.7l-2.2-3.2H3.4L10.3,21.5z M-1.9,26.4c2.4,0,4.3-1.9,4.3-4.2c0-1.5-0.8-2.9-2-3.7L-1,22.5
			c-0.2,0.5-0.7,0.7-1.2,0.5c-0.5-0.2-0.7-0.7-0.5-1.1l1.4-3.9c-2.3-0.3-4.5,1.3-4.8,3.6c-0.3,2.3,1.3,4.5,3.6,4.8
			C-2.3,26.4-2.1,26.4-1.9,26.4L-1.9,26.4z"/>
	</g>
</g>
<g id="icn-motorcycle" transform="translate(5.183 78.951)">
	<g id="Gruppe_15" transform="translate(0 0)">
		<path id="Pfad_9" d="M69.3-60.9c0.8,0,1.6,0.2,2.3,0.5l0.9-1.2c-1.3-0.7-2.7-1-4.2-1c-0.5,0-0.9-0.4-1-0.8v-1.7
			c0-3.3,3-5.9,6.6-5.9h1.9c0.5-0.1,0.9,0.3,0.9,0.7s-0.3,0.9-0.7,0.9c-0.1,0-0.1,0-0.2,0H75v1.7h2.8c0.3,0,0.6,0.1,0.8,0.4l1,1.3h8
			l0.5-0.6c0.5-0.7,1.4-1.1,2.2-1.1h4.8c0.5,0,0.9,0.4,0.9,0.8c-0.1,2.3-1.9,4.1-4.2,4.2l-1.3,1.7c3.1,0.1,5.5,2.3,5.5,5.1
			c0,2.8-2.6,5.1-5.7,5.1c-2.3,0.1-4.4-1.3-5.4-3.4h-5.7c-1.2,0-2.3-0.7-2.6-1.9l-0.1-0.6c-0.4-1.6-1.3-2.9-2.5-3.9l-0.8,1.1
			c1.1,0.9,1.8,2.2,1.8,3.7c0,2.7-2.6,5.1-5.7,5.1c-3.1,0-5.7-2.3-5.7-5.1S66.1-60.9,69.3-60.9z M90.3-54.2H87
			c0.7,1.1,2,1.7,3.3,1.7c1.9,0.2,3.6-1.1,3.8-3c0.2-1.9-1.1-3.6-3-3.8c-0.3,0-0.5,0-0.8,0c-0.4,0-0.8,0.1-1.2,0.2l-0.3,0.4
			c-0.5,0.7-1.4,1.1-2.2,1.1h3.8c0.9-0.1,1.8,0.6,1.9,1.5c0.1,0.9-0.6,1.8-1.5,1.9C90.6-54.2,90.4-54.2,90.3-54.2L90.3-54.2z
			 M69.3-52.5c2,0.1,3.7-1.4,3.8-3.4c0-0.8-0.4-1.7-1-2.2l-2,2.7c-0.3,0.4-0.9,0.5-1.3,0.2c-0.4-0.2-0.5-0.7-0.3-1.1
			c0,0,0-0.1,0.1-0.1l2-2.7c-0.4-0.1-0.8-0.2-1.2-0.2c-1.9-0.2-3.6,1.1-3.8,3c-0.2,1.9,1.1,3.6,3,3.8C68.8-52.5,69-52.5,69.3-52.5z"
			/>
	</g>
</g>
</svg>
