<svg version="1.1" id="Ebene_1" xmlns="http://www.w3.org/2000/svg" xmlns:xlink="http://www.w3.org/1999/xlink" x="0px" y="0px"
	 width="404.849px" height="511.001px" viewBox="0.894 0.002 404.849 511.001" enable-background="new 0.894 0.002 404.849 511.001"
	 xml:space="preserve">
<path fill="#FFFFFF" stroke="#000000" stroke-miterlimit="10" d="M263.997,10.002H49.596c-17.24,0-31.215,13.239-31.215,29.571
	v423.857c0,16.332,13.975,29.571,31.215,29.571h307.57c17.239,0,31.215-13.239,31.215-29.571V134.386L263.997,10.002z"/>
<g id="surface1">
	<path d="M276.266,3.951c-2.343-2.468-5.555-3.949-8.885-3.949H68.04c-36.783,0-67.146,30.242-67.146,67.021v376.954
		c0,36.783,30.363,67.025,67.146,67.025h270.558c36.783,0,67.146-30.242,67.146-67.025V144.661c0-3.208-1.481-6.292-3.579-8.64
		L276.266,3.951z M279.845,43.573l84.304,88.499h-54.803c-16.293,0-29.501-13.083-29.501-29.376V43.573z M338.598,486.316H68.04
		c-23.08,0-42.46-19.13-42.46-42.339V67.023c0-23.08,19.255-42.335,42.46-42.335h187.119v78.008
		c0,29.992,24.195,54.062,54.187,54.062h71.712v287.22C381.058,467.187,361.802,486.316,338.598,486.316z"/>
	<path d="M304.901,401.151H101.736c-6.787,0-12.343,5.552-12.343,12.343c0,6.787,5.556,12.343,12.343,12.343h203.291
		c6.787,0,12.343-5.556,12.343-12.343C317.369,406.703,311.813,401.151,304.901,401.151z"/>
	<path d="M140.122,268.341l50.854-54.683v134.787c0,6.788,5.556,12.344,12.343,12.344c6.792,0,12.343-5.556,12.343-12.344V213.658
		l50.854,54.683c2.468,2.589,5.68,3.949,9.01,3.949c2.963,0,6.051-1.111,8.394-3.333c4.939-4.69,5.31-12.469,0.62-17.404
		l-72.332-77.637c-2.347-2.468-5.556-3.949-9.01-3.949c-3.458,0-6.667,1.481-9.01,3.949l-72.331,77.637
		c-4.69,4.935-4.32,12.833,0.616,17.404C127.658,273.646,135.432,273.276,140.122,268.341z"/>
</g>
</svg>
