<?xml version="1.0" encoding="utf-8"?>
<!-- Generator: Adobe Illustrator 19.1.0, SVG Export Plug-In . SVG Version: 6.00 Build 0)  -->
<svg version="1.1" id="Ebene_3" xmlns="http://www.w3.org/2000/svg" xmlns:xlink="http://www.w3.org/1999/xlink" x="0px" y="0px"
	 viewBox="0 0 748.5 320.7" style="enable-background:new 0 0 748.5 320.7;" xml:space="preserve">
<style type="text/css">
	.st0{fill:none;stroke:#F40606;stroke-width:2;}
	.st1{fill:none;stroke:#2B2B2B;stroke-width:2;}
	.st2{fill:none;stroke:#6ED5F9;stroke-width:2;}
	.st3{fill:none;stroke:#C10606;stroke-width:2;}
	.st4{fill:none;stroke:#2C2C2C;stroke-width:2;}
	.st5{fill:none;stroke:#FCB6B6;stroke-width:2;}
	.st6{fill:none;stroke:#18ACED;stroke-width:2;}
</style>
<g id="Ebene_29">
</g>
<path class="st0" d="M656.6,162.2c4.4,0.3-0.6,2.3,8.1,3.3c8.7,1,9.7-2,12,3.7c2.3,5.7-0.7,9,4,9.7c4.7,0.7,12.7,5.7,16.7,6.3
	c4,0.6,8,5.3,8.3,2c0.3-3.3-9.7-5-14-9c-4.3-4-6.3-4.7-3.3-7.3c3-2.7,4.3,4,8,5.3c3.7,1.3,10,0.7,7-2.3s-6.7-13-1.3-8
	c5.3,5,3.3,7.7,10.3,9.3c7,1.6,8,2.3,6,5.7c-2,3.3,0.7,6.7,5.3,4.3c4.6-2.4-1-7.3,9.7-4.7c10.7,2.7,15,3.3,15,3.3"/>
<path class="st1" d="M616,126.5c7.3,5.3,8.3,13.3,12.3,10.3s1-2.7-1.7-6.3c-2.7-3.7,4-5.7,5.3-3.3c1.3,2.3-1,4.3,6.7,8
	s14.7,8.3,16.7,12c2,3.7,1.3,2,0,6.3s-3.1,8.3,1.3,8.7"/>
<path class="st0" d="M572.7,112.8c0.5-0.3,1.5,0,3.4,1.1c5,3,13.8,7.7,13.2,4.3c-0.6-3.4-11.2-7.3-5.2-9c6-1.7,8.9,4.7,12.5,6.4
	c3.7,1.7,3.5,7.1,9.1,7.1c5.7,0,3-1.5,10.3,3.8"/>
<path class="st1" d="M503.8,117c5.4-1,10.3-4,12.7-1.4c2.7,3,3.3,2,1.7,11c-1.7,9-5,18.3-1,21.3"/>
<path class="st0" d="M506.8,172.1c0.6-0.7,0.5-2.1-0.7-4.7c-3-6.3-5.7-8.7-3.3-14.7c2.4-6,3.7-7.7-1-17.7c-4.7-10-6.7-17.3-0.3-17.7
	c0.8,0,1.6-0.1,2.3-0.3"/>
<path class="st1" d="M456.5,174.7c4.3,2.3,10.3,3,13,3s6,1,7-1.7s-1.7-4.7-3-6.3c-1.3-1.7-2.9-6.3,3.2-5c6.1,1.3,11.8,1.7,16.4,1.7
	c4.7,0,2.3,1.7,7.3,4.3c3,1.6,5.5,2.4,6.4,1.4"/>
<path class="st2" d="M432.6,169.4c0.4,0.1,0.8,0.2,1.3,0.3c6.7,1.3,7.3,3.3,12.3,3.3s6-0.7,10.3,1.7"/>
<path class="st3" d="M306.7,180.4c7.2-3.2,14.7-6.5,16.7-6.9c3.7-0.7,4-4.7,7.7-4.7s6.7,1,4.7,3.3c-2,2.3,2,4,4.7,2.7
	c2.7-1.3,3.7-3.3,7.7-3.7c4-0.3,7.3-0.7,9.3-2.3c2-1.7,4.7-2.3,7-6c2.3-3.7,4-5.3,10-5s8.7,1.3,11.7,3.3s7.7,3.7,12.7,4
	c5,0.3,21.3,3.7,24.3,3.3c2.8-0.4,3.9-0.1,9.4,1"/>
<path class="st4" d="M96.3,136.8c1.4,0.2,2.9,0.3,4.3,0.5c0.5,0.1,5.7,1.2,6.2,1.4c1.5,0.5,2.7,1.3,3.2,2.2c2.3,4,1.3,7.3-2.3,9
	c-3.7,1.7-4.7,8.3,0.7,8.7c5.3,0.3,34.7,2.3,34.7,2.3s13-3.3,20,0s13,5,4.7,6.3c-8.3,1.3-19.3,7.7-21.3,10.3s-7,4-5.7,6.7
	s1,4,4.7,2.3s7.7-6.3,11-6.7c3.3-0.3,11-2.7,6.7,1s-9.7,6-10,8s-0.3,3.3,4,3.3s4.5-3.3,8.4-4.7c3.9-1.3,7.3-4.7,8.9-5
	c1.7-0.3,7.3-0.3,4.3,2.7s-7,4.3-9.7,7c-2.7,2.7-2.3,4.7,2.3,5c4.7,0.3,12.7-4,13,0c0.3,4-1,7.3,0.3,8.7c1.3,1.3,5,4.3,6,5.7
	s3.3,2.7,7.3,2.3c4-0.3,16-0.7,17.7-2.3c1.7-1.7,1.3-4-1.7-5.3s-11.3-3.3-10.7-7.3c0.7-4,6-1.7,7.7-2.7s5.7-1,9.3,0c3.7,1,6.3,4,9,4
	s5.3,3.3,5.3-1s-1-5,3.7-3.7s4.8,3,4.4-1.7c-0.4-4.7,2.3-3.7,6.6-2.3c4.3,1.3,10.3,3.3,14.7,5c4.3,1.7,11.7,6,11.7,1
	s-6.3-5.7-6.7-8.3c-0.3-2.7-4.3-3-9.3-3.7c-5-0.7-5-3-1.3-5c3.7-2,8,1.7,9.7,2s5.7,3,9.3,3c3.7,0,4.7-1,8,0.3c3.3,1.3,2.3,1.3,7.7,0
	c2.3-0.6,7.8-2.9,13.6-5.4"/>
<path class="st5" d="M214.6,5.3C212.2,8,210.2,7,207.9,8c-2.3,1-2,7.7-4.3,9.7c-2.3,2-6.7,2.3-6.7,5.7c0,3.3-1,3-2.7,4.3
	c-1.7,1.3-4.3,2-1.7,4.7c2.7,2.7,4,4.7,6.7,5.3c2.7,0.7,19.3,6.3,20.7,7.3c1.4,1-6.3,2-8.7,2c-2.3,0-13.7-3.7-11,0s9,5,10.7,4.3
	c1.7-0.7,10.7-5,13.7-3.7c3,1.3,17.3,2,17.7,3.8c0.3,1.8,1.7,3.5-4,3.5s-17-2-12,1.7c5,3.7,4,4,2,6s-13,7.7-13.7,9
	c-0.7,1.3-4.3,4.3-6.3,5c-2,0.7-12,1-13.7,2c-1.7,1-10.7,5.3-12,5.7c-1.3,0.3-1.3,5.7-6,7c-4.7,1.3-11.3,1.3-15,5.3
	c-3.7,4-16.3,8.3-16.3,8.3s-10.7,5.7-13,6.3c-2.3,0.7-6.3,1-6,3.3c0.3,2.3-0.3,4-5.3,4.7c-5,0.7-15,6-17.3,6c-2.3,0-9,0.3-12.7,3
	s-4,6.3,0,7.7c1.2,0.4,3.1,0.6,5.3,0.9"/>
<g>
	<path class="st6" d="M142.9,161c2,1.7,6.3,8.7-1.3,10c-7.7,1.3-8.7,1.7-11.3,7c-2.7,5.3-7.7,15.7-11.3,18c-3.7,2.3-9.3-0.7-3.7,7.7
		c5.6,8.4,15.7,7.1,10.3,10.4c-5.3,3.3-11.5,5.3-12.7,5.9c-1.3,0.7-6.6,1-10.3,7c-3.7,6-5.3,6-9.7,9c-4.3,3-2,4.3-1.3,7.3
		c0.7,3-2.1,3.7-1.2,6s4.2,2,2.9,5c-1.3,3-1.4,7.7-5.2,10.7c-3.8,3-5.1,7.3-6.5,8c-1.3,0.7-6.3,4.3-11,5.3c-4.7,1-10,6.3-11.3,10.7
		c-1.3,4.3-6,11-10,8s3.3-9-3.3-7s-7,9-10.3,11s-9.7,3-14.3,8.3c-4.7,5.3-17.3,12.3-19,9c-1.7-3.3-0.3-6.3,2.3-12
		c2.7-5.7,5.3-3.3,7.3-9.3s-3.7-11.3,0-14.3s4-10.3,8-11.3s10-5.3,10.3-7.3c0.3-2-2.3-5-7-4.7"/>
</g>
<g>
	<path class="st2" d="M586.2,153.5c-1.6-1.3-5.3,1.6-8.3,3s2.4,4.3,1.7,6.2s-2,0.5-4.7,0.8c-2.6,0.3-2.6-2.3-6.5-2.6
		c-3.9-0.3-1.1,3.3-0.1,7c1,3.7-4.7,0.7-7.5,0c-2.8-0.7-3.2,1.7,0,3c3.2,1.4-2.5,2.7-7.5,2.2s-4.7,1.5-13.7,2.8c-9,1.3-9-4-11.7-8
		c-2.7-4-6.4-5.6-9.7-7.8c-3.3-2.1-1.3-11.8-1.3-11.8l0.3-0.4c4,3,11,9.3,17.7,11c6.7,1.7,12,7.3,15,3.7c3-3.7,4.3-3,0-6.3
		c-4.3-3.3-17.7-8.3-9.7-10c8-1.7,11.3-2,15.7,1.3c4.3,3.3,11.7,6.7,7.3,1.3c-4.3-5.3-15-7.7-8.7-7.7s6.6,2.7,10,2.7
		c3.3,0,7.7,2,5-1s-6-2-2.7-3s0,0.7,3.5,0.7s7.5-2,3.8-3.3c-3.7-1.3-8.3-3.3-5.3-4s5-1.7,11-0.7s22,8,19.8,4.3
		c-3.8-6.4-17.1-3.6-9.5-7.7c4.3-2.3,16.7,3.9,13-1.2c-5.4-7.7-28.3-3.8-29.7-9.1c-0.8-3.3-1.5-5.6-0.7-6.1"/>
</g>
</svg>
