<svg width="186" height="39" xmlns="http://www.w3.org/2000/svg" xmlns:xlink="http://www.w3.org/1999/xlink" x="0px" y="0px"
	 viewBox="0 0 186 38.9" style="enable-background:new 0 0 186 38.9;" xml:space="preserve">
<g transform="translate(0 7.335)">
	<path  d="M19.3,0.7h1.6v8h-1.6c-0.9-4.1-4.5-7.1-8.7-7.3c-2.8,0-6.6,1.4-6.6,4.4c0,2.7,2.1,3.4,4.6,3.9
		c3.1,0.5,6.1,1.3,9.1,2.3c3,1.2,5.5,3.6,5.5,8.8c0,5.3-3.6,10.8-11.7,10.8c-2.5,0-4.9-0.7-6.9-2.1l-2.6,1.7H0v-8.8h1.8
		c1.4,4.2,4.7,7.8,9.7,7.8c5.6,0,8-3.2,8-6.1c0-3.9-4.9-4.2-9.7-5.3C5,17.7,0.1,15.9,0.1,9c0-5.2,4.8-9,10.5-9
		c2.4,0.1,4.7,0.8,6.8,2L19.3,0.7z"/>
	<path  d="M40.8,17.6c0-2.3,0.2-3.8-3.5-3.8c-0.6,0-2.7,0.3-2.7,1.1c0.1,0.4,0.3,0.7,0.5,1c0.3,0.3,0.4,0.7,0.5,1.1
		c0.2,1.6-1,3-2.6,3.2c-0.2,0-0.4,0-0.6,0c-1.8,0-3.2-1-3.2-2.7c0-3.6,5.4-4.8,8.5-4.8c6.5,0,9.2,1.7,9.2,3v11
		c0,0.9,0.1,2.1,1.5,2.1c0.5,0,0.9-0.3,1.3-0.6l0.9,0.9c-1.1,1.8-3.1,2.8-5.2,2.6c-2-0.1-3.7-1.3-4.5-3.1c-1.8,1.9-4.4,3.1-7,3.1
		c-2.7,0-5.9-1.4-5.9-4.2c0-5.3,8.3-6.6,12.8-6.7L40.8,17.6z M40.8,21.7c-2.7,0.1-6.4,0.5-6.4,3.7c0,1.5,0.9,3.6,2.9,3.6
		c2.3,0,3.5-1.4,3.5-2.6V21.7z"/>
	<path  d="M63.1,16.9c2.2-3.3,4.8-4.2,8.2-4.2c3.1,0,5.7,0.8,5.7,4.3v12.6h3.1v1.3H67.6v-1.3h2.7V18.1
		c0-2.9-0.8-3.5-2.2-3.5c-3.2,0-5,3.7-5,6.2v8.9h2.7v1.3H53.2v-1.3h3.2V14.2h-3.2V13h3.2c2.3,0,4.5-0.2,6.7-0.2L63.1,16.9z"/>
	<path  d="M97.8,28.3c-1.5,2.1-3.9,3.3-6.5,3.3c-5.1,0-9.3-4.5-9.3-8.9c0-7,6.4-9.9,10-9.9c2.3,0,4.5,1.1,5.7,3.1h0.1
		V1.7h-3.9V0.5h3.9c2.3,0,4.6-0.3,6.9-0.5v29.6h2.9v1.3h-9.8V28.3z M97.8,19.4c0-2.9-2.2-5.3-5.1-5.5c-1.5,0-2.9,0.7-2.9,2.2v11.9
		c-0.1,1.2,0.8,2.3,2,2.4c0.1,0,0.2,0,0.4,0c3-0.1,5.5-2.5,5.6-5.5L97.8,19.4z"/>
	<path  d="M137.8,29.6v1.3h-12.7v-1.3h2.6V16.2c0-1-1.2-1.5-2.2-1.5c-2.3,0-5.1,3-5.1,6.7v8.2h2.9v1.3h-12.6v-1.3h2.8
		V1.7h-3.1V0.5h3.1c2.3,0,4.6-0.3,6.9-0.5v17.4h0.1c1.6-3,4.8-4.9,8.2-4.7c4.3,0,5.9,1.8,5.9,5.5v11.4H137.8z"/>
	<path  d="M164,22.3c0,5.8-5.6,9.3-12,9.3c-7.2,0-12-4.3-12-9.3c0-5.9,6-9.6,12-9.6S164,16.4,164,22.3z M155.9,17.4
		c0-2.8-0.6-3.5-3.9-3.5c-3.1,0-3.9,0.8-3.9,3.5V27c0,2.6,1.5,3.3,3.9,3.3s3.9-0.7,3.9-3.3V17.4z"/>
	<path  d="M176.6,13h4.3v1.3h-4.3v15.4h3.6v1.3h-13.6v-1.3h3.1V14.2h-3.4V13h3.4v-2.6c0-7.4,6-10.4,10.4-10.4
		c4,0,5.9,1.9,5.9,3.8c0.1,1.6-1.1,3.1-2.8,3.2c-0.2,0-0.4,0-0.5,0c-1.5,0.1-2.8-1-2.9-2.5c-0.1-0.6,0.2-1.2,0.6-1.6
		c0.3-0.3,0.6-0.4,0.6-0.9c0-0.5-1-0.7-1.4-0.7c-2.8,0-3,2.5-3,4.5L176.6,13z"/>
</g>
<g >
	<path  d="M30,3.5h0.9v3.7h4.6V3.5h0.9V12h-0.9V8h-4.6v4H30V3.5z"/>
	<path  d="M44.1,9.2c0,0.4-0.1,0.8-0.2,1.2c-0.1,0.4-0.4,0.7-0.6,0.9c-0.3,0.3-0.6,0.5-0.9,0.6c-0.4,0.1-0.8,0.2-1.2,0.2
		c-0.4,0-0.8-0.1-1.2-0.2c-0.4-0.1-0.7-0.4-0.9-0.6c-0.3-0.3-0.5-0.6-0.6-0.9c-0.1-0.4-0.2-0.8-0.2-1.2c0-0.4,0.1-0.8,0.2-1.2
		c0.1-0.4,0.4-0.7,0.6-0.9c0.3-0.3,0.6-0.5,0.9-0.6c0.4-0.1,0.8-0.2,1.2-0.2c0.4,0,0.8,0.1,1.2,0.2c0.4,0.1,0.7,0.4,0.9,0.6
		s0.5,0.6,0.6,0.9C44.1,8.4,44.1,8.8,44.1,9.2z M43.3,9.2c0-0.3,0-0.6-0.1-0.9C43,8,42.9,7.8,42.7,7.6c-0.2-0.2-0.4-0.4-0.7-0.5
		C41.8,7,41.5,7,41.2,7S40.5,7,40.3,7.1c-0.3,0.1-0.5,0.3-0.7,0.5c-0.2,0.2-0.3,0.4-0.4,0.7C39.1,8.6,39,8.9,39,9.2
		c0,0.3,0,0.6,0.1,0.9c0.1,0.3,0.2,0.5,0.4,0.7c0.2,0.2,0.4,0.4,0.7,0.5s0.6,0.2,0.9,0.2s0.6-0.1,0.9-0.2c0.3-0.1,0.5-0.3,0.7-0.5
		c0.2-0.2,0.3-0.4,0.4-0.7C43.2,9.8,43.3,9.5,43.3,9.2z"/>
	<path  d="M48.6,7.1H47v3.3c0,0.2,0,0.4,0.1,0.5s0.1,0.2,0.2,0.3c0.1,0.1,0.2,0.1,0.3,0.1c0.1,0,0.2,0,0.3,0
		c0.1,0,0.3,0,0.4-0.1s0.3-0.1,0.4-0.2l0,0.7c-0.3,0.1-0.7,0.2-1.1,0.2c-0.2,0-0.3,0-0.5-0.1s-0.3-0.1-0.4-0.2
		c-0.1-0.1-0.2-0.3-0.3-0.5c-0.1-0.2-0.1-0.4-0.1-0.8V7.1H45V6.4h1.2V4.8H47v1.6h1.6V7.1z"/>
	<path  d="M50.4,9.4c0,0.3,0.1,0.5,0.2,0.8s0.3,0.5,0.4,0.6c0.2,0.2,0.4,0.3,0.6,0.4c0.2,0.1,0.5,0.2,0.8,0.2
		c0.4,0,0.8-0.1,1.1-0.3s0.5-0.4,0.7-0.7l0.6,0.5c-0.3,0.4-0.7,0.7-1.1,0.9c-0.4,0.2-0.8,0.3-1.3,0.3c-0.4,0-0.8-0.1-1.2-0.2
		c-0.4-0.1-0.7-0.4-0.9-0.6c-0.3-0.3-0.5-0.6-0.6-0.9c-0.1-0.4-0.2-0.8-0.2-1.2c0-0.4,0.1-0.8,0.2-1.2c0.1-0.4,0.3-0.7,0.6-0.9
		c0.3-0.3,0.6-0.5,0.9-0.6c0.3-0.1,0.7-0.2,1.1-0.2c0.4,0,0.8,0.1,1.1,0.2c0.3,0.2,0.6,0.4,0.8,0.6c0.2,0.3,0.4,0.5,0.5,0.9
		S55,8.7,55,9v0.4H50.4z M54.2,8.8c0-0.5-0.2-1-0.5-1.3C53.4,7.1,52.9,7,52.4,7c-0.3,0-0.5,0-0.7,0.2c-0.2,0.1-0.5,0.2-0.6,0.4
		s-0.3,0.4-0.4,0.6c-0.1,0.2-0.2,0.4-0.2,0.7H54.2z"/>
	<path  d="M57.6,12h-0.8V2.9h0.8V12z"/>
</g>
<path  d="M67,4.7l1.3-0.1h0.1c0.1,0,0.1,0,0.1,0.1c0,0,0,0.1-0.1,0.1l-1.1,0.7l0.5,1.3c0,0,0,0,0,0.1c0,0,0,0,0,0.1
	c0,0,0,0-0.1,0c0,0-0.1,0-0.1-0.1l-1-0.9l-1,0.9c0,0-0.1,0.1-0.1,0.1c0,0-0.1,0-0.1,0c0,0,0,0,0-0.1c0,0,0,0,0-0.1l0.5-1.3l-1.1-0.7
	c-0.1,0-0.1-0.1-0.1-0.1c0-0.1,0-0.1,0.1-0.1h0l1.3,0.1l0.3-1.3c0,0,0-0.1,0-0.1c0,0,0,0,0.1,0c0,0,0.1,0,0.1,0c0,0,0,0.1,0,0.1
	L67,4.7z"/>
<path  d="M72.2,4.7l1.3-0.1h0.1c0.1,0,0.1,0,0.1,0.1c0,0,0,0.1-0.1,0.1l-1.1,0.7L73,6.8c0,0,0,0,0,0.1c0,0,0,0,0,0.1
	c0,0,0,0-0.1,0c0,0-0.1,0-0.1-0.1l-1-0.9l-1,0.9c0,0-0.1,0.1-0.1,0.1c0,0-0.1,0-0.1,0c0,0,0,0,0-0.1c0,0,0,0,0-0.1l0.5-1.3L70,4.8
	c-0.1,0-0.1-0.1-0.1-0.1c0-0.1,0-0.1,0.1-0.1h0.1l1.3,0.1l0.3-1.3c0,0,0-0.1,0-0.1c0,0,0.1,0,0.1,0c0,0,0,0.1,0,0.1L72.2,4.7z"/>
<path  d="M77.7,4.7L79,4.6H79c0.1,0,0.1,0,0.1,0.1c0,0,0,0.1-0.1,0.1l-1.1,0.7l0.5,1.3c0,0,0,0,0,0.1c0,0,0,0,0,0.1
	c0,0,0,0-0.1,0c0,0-0.1,0-0.1-0.1l-1-0.9l-1,0.9c0,0-0.1,0-0.1,0.1c0,0-0.1,0-0.1,0c0,0,0,0,0-0.1c0,0,0,0,0-0.1l0.5-1.3l-1.1-0.7
	c-0.1,0-0.1-0.1-0.1-0.1c0-0.1,0-0.1,0.1-0.1h0l1.3,0.1l0.3-1.3c0,0,0-0.1,0-0.1c0,0,0,0,0.1,0c0,0,0.1,0,0.1,0c0,0,0,0.1,0,0.1
	L77.7,4.7z"/>
<path  d="M83.1,4.7l1.3-0.1h0.1c0.1,0,0.1,0,0.1,0.1c0,0,0,0.1-0.1,0.1l-1.1,0.7l0.5,1.3c0,0,0,0,0,0.1c0,0,0,0,0,0.1
	c0,0,0,0-0.1,0c0,0-0.1,0-0.1-0.1l-1-0.9l-1,0.9c0,0-0.1,0.1-0.1,0.1c0,0,0,0-0.1,0c0,0,0,0,0-0.1c0,0,0,0,0-0.1l0.5-1.3l-1.1-0.7
	c-0.1,0-0.1-0.1-0.1-0.1c0-0.1,0-0.1,0.1-0.1h0l1.3,0.1l0.3-1.3c0,0,0-0.1,0-0.1c0,0,0.1,0,0.1,0c0,0,0,0.1,0,0.1L83.1,4.7z"/>
</svg>
