<?xml version="1.0" encoding="utf-8"?>
<!-- Generator: Adobe Illustrator 22.1.0, SVG Export Plug-In . SVG Version: 6.00 Build 0)  -->
<svg version="1.1" id="Ebene_1" xmlns="http://www.w3.org/2000/svg" xmlns:xlink="http://www.w3.org/1999/xlink" x="0px" y="0px"
	 viewBox="0 0 16 16" style="enable-background:new 0 0 16 16;" xml:space="preserve">
<path d="M8,0.1c-3.2,0-5.7,2.6-5.7,5.7c0,3.9,5.1,9.7,5.3,9.9c0.2,0.2,0.5,0.2,0.7,0c0,0,0,0,0,0c0.2-0.2,5.3-6,5.3-9.9
	C13.7,2.7,11.2,0.1,8,0.1z M8,8.7c-1.6,0-2.9-1.3-2.9-2.9c0-1.6,1.3-2.9,2.9-2.9c1.6,0,2.9,1.3,2.9,2.9c0,0,0,0,0,0
	C10.9,7.4,9.6,8.7,8,8.7z"/>
</svg>
