<svg xmlns="http://www.w3.org/2000/svg" viewBox="0 0 14.248 13.57"><g transform="translate(0.032)"><g transform="translate(-0.032)"><path d="M13.9,6.161a.951.951,0,0,0,.249-1.033.958.958,0,0,0-.819-.677l-3.454-.5A.515.515,0,0,1,9.523,3.7L7.992.57A.939.939,0,0,0,7.1,0a1.027,1.027,0,0,0-.926.57L4.644,3.7a.45.45,0,0,1-.356.249l-3.454.5a1,1,0,0,0-.57,1.709L2.757,8.582a.536.536,0,0,1,.142.392l-.605,3.419a1.1,1.1,0,0,0,.214.819,1.038,1.038,0,0,0,1.246.249l3.063-1.6a.454.454,0,0,1,.427,0l3.1,1.6a1.1,1.1,0,0,0,.463.107,1.144,1.144,0,0,0,.783-.356.97.97,0,0,0,.214-.819L11.2,8.974a.424.424,0,0,1,.142-.392Zm0,0" transform="translate(0.032)"/></g></g></svg>