<svg xmlns="http://www.w3.org/2000/svg" viewBox="0 0 18.114 14.635"><defs><style>.a{fill:#231f20;}</style></defs><g transform="translate(-145 -117.958)"><path class="a" d="M18.644,9.776,16.65,6.622V.812L15.838,0H3.406L2.595.812v5.81L.6,9.776ZM15.026,1.624V5.677a21.667,21.667,0,0,0-5.4-.6,21.952,21.952,0,0,0-5.4.6V1.624Zm0,0" transform="translate(144.435 117.958)"/><path class="a" d="M0,185.8v1.624H1.89v2.238H3.514v-2.238H14.6v2.238h1.624v-2.238h1.89V185.8Zm0,0" transform="translate(145 -57.068)"/><path class="a" d="M85.741,41.06v-.945c0-.562-.812-1.015-1.821-1.015s-1.821.458-1.821,1.015v1.421a15.035,15.035,0,0,1,1.809-.342c.667-.064,1.832-.133,1.832-.133Zm0,0" transform="translate(67.66 81.125)"/><path class="a" d="M171.241,41.535V40.115c0-.562-.818-1.015-1.821-1.015s-1.821.458-1.821,1.015v.945s1.165.07,1.826.133a15.232,15.232,0,0,1,1.815.342Zm0,0" transform="translate(-12.882 81.125)"/></g></svg>