<?xml version="1.0" encoding="utf-8"?>
<!-- Generator: Adobe Illustrator 22.1.0, SVG Export Plug-In . SVG Version: 6.00 Build 0)  -->
<svg version="1.1" id="Ebene_1" xmlns="http://www.w3.org/2000/svg" xmlns:xlink="http://www.w3.org/1999/xlink" x="0px" y="0px"
	 viewBox="0 0 16 16" style="enable-background:new 0 0 16 16;" xml:space="preserve">
<g transform="translate(0 -0.063)">
	<path d="M1.8,13.8c0,0.5,0.4,0.9,0.9,0.9h4.5V8.5H1.8V13.8z"/>
	<path d="M14.2,4.9h-2.8c0.2-0.1,0.3-0.3,0.5-0.4c0.7-0.7,0.7-1.9,0-2.6c-0.7-0.7-1.9-0.7-2.6,0C8.5,2.7,8.1,3.8,8,4.9H8
		c-0.1-1.1-0.5-2.2-1.3-3C6,1.2,4.8,1.2,4.1,1.9c-0.7,0.7-0.7,1.9,0,2.6c0.2,0.1,0.3,0.3,0.5,0.4H1.8c-0.5,0-0.9,0.4-0.9,0.9v1.3
		c0,0.2,0.2,0.4,0.4,0.4h5.8V5.8h1.8v1.8h5.8c0.2,0,0.4-0.2,0.4-0.4V5.8C15.1,5.3,14.7,4.9,14.2,4.9C14.2,4.9,14.2,4.9,14.2,4.9z
		 M4.7,3.9c-0.4-0.4-0.4-1,0-1.4c0.4-0.4,1-0.4,1.3,0c0,0,0,0,0,0c0.6,0.6,1.2,2.1,1,2.4c-0.1,0-0.1,0-0.2,0
		C6.1,4.8,5.3,4.5,4.7,3.9z M9.9,2.5c0.4-0.3,1-0.3,1.4,0.1c0.3,0.4,0.3,0.9,0,1.3c-0.6,0.5-1.4,0.9-2.2,1c-0.1,0-0.2,0-0.2,0
		C8.7,4.7,9.3,3.2,9.9,2.5z"/>
	<path d="M8.9,14.7h4.5c0.5,0,0.9-0.4,0.9-0.9c0,0,0,0,0,0V8.5H8.9V14.7z"/>
</g>
</svg>
