<svg xmlns="http://www.w3.org/2000/svg" width="64.533" height="64.533" viewBox="0 0 64.533 64.533" style="fill:#560E30;"><path d="M8.284,0H56.249a8.1,8.1,0,0,1,8.284,8.284V56.249a8.1,8.1,0,0,1-8.284,8.284H8.284A8.1,8.1,0,0,1,0,56.249V8.284A8.1,8.1,0,0,1,8.284,0ZM47.053,7.207a2.935,2.935,0,0,0-2.9,2.9v6.959a2.935,2.935,0,0,0,2.9,2.9h7.29a2.935,2.935,0,0,0,2.9-2.9V10.107a2.935,2.935,0,0,0-2.9-2.9h-7.29ZM57.243,27.255H51.527a20.436,20.436,0,0,1,.828,5.55c0,10.769-8.947,19.468-20.047,19.468S12.26,43.574,12.26,32.8a20.436,20.436,0,0,1,.828-5.55H7.207V54.509a2.581,2.581,0,0,0,2.568,2.568h44.9a2.581,2.581,0,0,0,2.568-2.568Zm-24.935-7.7A12.766,12.766,0,0,0,19.385,32.142a12.927,12.927,0,0,0,25.846,0A12.714,12.714,0,0,0,32.308,19.55Zm0,0" fill-rule="evenodd"/></svg>