<svg xmlns="http://www.w3.org/2000/svg" viewBox="0 0 20.884 19.568"><defs><style>.a{fill:#fff;}</style></defs><path class="a" d="M261.6,1.592a1.527,1.527,0,0,0,.467,1.125,1.64,1.64,0,0,0,2.292,0,1.526,1.526,0,0,0,.467-1.125,1.526,1.526,0,0,0-.467-1.125,1.64,1.64,0,0,0-2.292,0,1.526,1.526,0,0,0-.467,1.125Zm0,0" transform="translate(-247.72)"/><path class="a" d="M5.348,225.348,0,220v.934l4.966,5.009a.723.723,0,0,0,.658.233,2.639,2.639,0,0,0,.637-.191c.186-.085.276-.143.276-.17l-.467-.509a1.231,1.231,0,0,0-.149.085.885.885,0,0,1-.276.085.247.247,0,0,1-.3-.127Zm0,0" transform="translate(0 -208.327)"/><rect class="a" width="5.645" height="0.424" transform="translate(0 6.961)"/><path class="a" d="M270.24,102.4l.637.3-6.2,12.522H264Zm0,0" transform="translate(-249.993 -96.967)"/><path class="a" d="M30.392,53.613l-2.5,2.886a.7.7,0,0,1-.594.3.8.8,0,0,1-.806-.806.812.812,0,0,1,.255-.594l2.674-3.1a.81.81,0,0,1,.637-.3h3.905a.989.989,0,0,1,.722.3l2.462,2.5,2.08-2.08a.807.807,0,0,1,.509-.17.857.857,0,0,1,.594.233.742.742,0,0,1,.255.573.839.839,0,0,1-.212.552l-2.462,2.5a1.078,1.078,0,0,1-.679.361.747.747,0,0,1-.509-.106l-1.7-1.7L32.642,57.73l2.207,2.207a1.1,1.1,0,0,1,.106.127,1.526,1.526,0,0,1,.149.424,1.092,1.092,0,0,1-.085.722L33.83,66.644a1.058,1.058,0,0,1-.382.615,1.057,1.057,0,0,1-1.7-.828.854.854,0,0,1,.042-.255l1.019-4.457-2.5-2.419-2.122,2.377a1.1,1.1,0,0,1-.127.106,2.249,2.249,0,0,1-.4.191,1.454,1.454,0,0,1-.7.085h-4.33a.849.849,0,0,1-.658-.191,1.084,1.084,0,0,1-.361-.615.909.909,0,0,1,.106-.785,1,1,0,0,1,.658-.446h3.99l5.476-6.367Zm0,0" transform="translate(-20.417 -49.241)"/><path class="a" d="M128.571,344.842a.8.8,0,0,1-.764.764H115.2v.467h12.607a1.234,1.234,0,0,0,1.273-1.273Zm0,0" transform="translate(-109.088 -326.505)"/></svg>