<?xml version="1.0" encoding="utf-8"?>
<!-- Generator: Adobe Illustrator 22.1.0, SVG Export Plug-In . SVG Version: 6.00 Build 0)  -->
<svg version="1.1" id="Ebene_1" xmlns="http://www.w3.org/2000/svg" xmlns:xlink="http://www.w3.org/1999/xlink" x="0px" y="0px"
	 viewBox="0 0 16 16" style="enable-background:new 0 0 16 16;" xml:space="preserve">
<g>
	<path d="M12.8,15H3.2c-1,0-1.7-0.8-1.8-1.7V7.1L8,10.2l6.6-3.1v6.1C14.6,14.2,13.8,15,12.8,15z"/>
	<path d="M11.9,1H4.1C3.6,1,3.2,1.4,3.2,1.9c0,0,0,0,0,0v4.8L8,8.9l4.8-2.2V1.9C12.8,1.4,12.4,1,11.9,1C11.9,1,11.9,1,11.9,1z
		 M10.2,5.4H5.8C5.6,5.4,5.4,5.2,5.4,5c0-0.2,0.2-0.4,0.4-0.5c0,0,0,0,0,0h4.4c0.2,0,0.4,0.2,0.5,0.4C10.7,5.2,10.5,5.4,10.2,5.4
		C10.2,5.4,10.2,5.4,10.2,5.4z M10.2,3.6H5.8c-0.2,0-0.4-0.2-0.5-0.4c0-0.2,0.2-0.4,0.4-0.5c0,0,0,0,0,0h4.4c0.2,0,0.4,0.2,0.5,0.4
		C10.7,3.4,10.5,3.6,10.2,3.6C10.2,3.6,10.2,3.6,10.2,3.6z"/>
</g>
</svg>
