<?xml version="1.0" encoding="utf-8"?>
<!-- Generator: Adobe Illustrator 22.1.0, SVG Export Plug-In . SVG Version: 6.00 Build 0)  -->
<svg version="1.1" id="Ebene_1" xmlns="http://www.w3.org/2000/svg" xmlns:xlink="http://www.w3.org/1999/xlink" x="0px" y="0px"
	 viewBox="0 0 16 16" style="enable-background:new 0 0 16 16;" xml:space="preserve">
<path id="ic_group_24px" d="M12.477,9.591a2.3,2.3,0,1,0-2.3-2.3A2.286,2.286,0,0,0,12.477,9.591Zm-6.121,0a2.3,2.3,0,1,0-2.3-2.3A2.286,2.286,0,0,0,6.356,9.591Zm0,1.53C4.573,11.121,1,12.016,1,13.8v1.913H11.712V13.8C11.712,12.016,8.139,11.121,6.356,11.121Zm6.121,0c-.222,0-.474.015-.742.038a3.229,3.229,0,0,1,1.507,2.64v1.913h4.591V13.8C17.833,12.016,14.26,11.121,12.477,11.121Z" transform="translate(-1 -2)"/>
</svg>
